<svg width="11" height="22" viewBox="0 0 11 22" fill="none" xmlns="http://www.w3.org/2000/svg">
<path d="M0.000178268 3.22617L0.000178538 9.67665L1.84402 10.7864L-4.05752e-07 11.8964L-1.35256e-07 18.3468L5.35928 21.5723L10.7186 18.3468L10.7186 11.8959L8.87473 10.7863L10.7187 9.67651L10.7187 3.22556L5.35901 0.000135178L0.000178268 3.22617ZM4.98328 1.13277L4.98328 6.22481L0.752771 8.77135L0.752771 3.67931L4.98328 1.13277ZM0.752413 17.8938L0.752413 12.8013L4.98328 15.3475L4.98328 20.44L0.752413 17.8938ZM5.73551 20.4402L5.73551 15.3477L9.96638 12.8015L9.96638 17.894L5.73551 20.4402ZM9.58988 12.1224L5.35937 14.6686L1.12887 12.1224L2.59675 11.2391L5.35937 12.9018L8.12231 11.2391L9.58988 12.1224ZM3.3488 10.7864L5.35937 9.57628L7.36994 10.7864L5.35937 11.9963L3.3488 10.7864ZM5.35937 8.67038L2.59643 10.3332L1.12887 9.44991L5.35937 6.90375L9.59024 9.44991L8.12236 10.3332L5.35937 8.67038ZM9.96629 3.6787L9.96629 8.77074L5.73542 6.22439L5.73542 1.13235L9.96629 3.6787Z" fill="#5C33FF"/>
<path d="M9.96629 3.6787L9.96629 8.77074L5.73542 6.22439L5.73542 1.13235L9.96629 3.6787Z" fill="#5C33FF"/>
<path d="M0.752413 17.8938L0.752413 12.8013L4.98328 15.3475L4.98328 20.44L0.752413 17.8938Z" fill="#5C33FF"/>
<path d="M3.3488 10.7864L5.35937 9.57628L7.36994 10.7864L5.35937 11.9963L3.3488 10.7864Z" fill="#5C33FF"/>
</svg>
