<svg width="179" height="31" viewBox="0 0 179 31" fill="none" xmlns="http://www.w3.org/2000/svg">
<path d="M28.2632 15.5C28.2632 22.9094 22.3922 28.916 15.1501 28.916C7.90791 28.916 2.03698 22.9094 2.03698 15.5C2.03698 8.09057 7.90791 2.08403 15.1501 2.08403C22.3922 2.08403 28.2632 8.09057 28.2632 15.5Z" fill="white"/>
<path fill-rule="evenodd" clip-rule="evenodd" d="M15.1535 31C23.5226 31 30.307 24.0605 30.307 15.5C30.307 6.9395 23.5226 0 15.1535 0C6.78437 0 0 6.9395 0 15.5C0 24.0605 6.78437 31 15.1535 31ZM13.7759 3.94545H17.0821V6.76364H18.0777C19.0848 6.76364 19.9759 6.81373 20.7484 6.91583C21.3473 6.98986 21.8921 7.09802 22.3794 7.24333C22.519 7.28489 22.6538 7.32947 22.7841 7.37709C23.3661 7.5835 23.87 7.85486 24.2814 8.20107C24.6936 8.54206 25.0235 8.94828 25.2656 9.41834C25.5107 9.88042 25.6762 10.3945 25.7674 10.9546C25.8557 11.4981 25.8987 12.0931 25.8987 12.7382V13.3019H22.8139V12.7382C22.8139 11.9242 22.7265 11.3302 22.5799 10.9265C22.4413 10.5445 22.2231 10.2765 21.9247 10.0932C21.6034 9.89584 21.1458 9.7497 20.5207 9.68447C19.8712 9.61677 19.0581 9.58182 18.0777 9.58182H12.7699C12.4634 9.58182 12.175 9.5854 11.9046 9.59228C11.4058 9.60466 10.9677 9.62888 10.5894 9.66411L10.5835 9.66466C10.2805 9.6897 10.0147 9.72933 9.78305 9.78135C9.58314 9.82621 9.40879 9.88042 9.25865 9.94235C9.16287 9.98198 9.07623 10.0257 8.9982 10.0731C8.82277 10.1799 8.69013 10.3059 8.59057 10.4468C8.43721 10.6645 8.30591 10.9829 8.21954 11.431C8.13156 11.8884 8.07801 12.4696 8.06456 13.1824C8.05111 13.9032 8.04411 14.7696 8.04411 15.7818C8.04411 16.4288 8.0468 17.0175 8.05245 17.5484C8.05568 17.847 8.05972 18.1272 8.06456 18.3892C8.08178 18.9911 8.12564 19.501 8.19317 19.9232C8.20474 19.9956 8.21712 20.0655 8.23003 20.1327C8.3164 20.581 8.44474 20.9011 8.59327 21.1204C8.73668 21.3224 8.94896 21.4933 9.25865 21.6213C9.58448 21.7559 10.0222 21.8566 10.5865 21.91C11.1725 21.9573 11.8992 21.9818 12.7699 21.9818H18.0882C18.8501 21.9818 19.5002 21.9609 20.0405 21.9199C20.574 21.8794 21.0104 21.8065 21.3572 21.7069C21.7 21.6084 21.9441 21.482 22.112 21.3444C22.2831 21.2043 22.4157 21.0299 22.5118 20.8124L22.5142 20.8072C22.6218 20.5703 22.7023 20.2716 22.7453 19.9012C22.7905 19.506 22.8139 19.0354 22.8139 18.4872V18.0364H14.8624V15.2182H25.8987V18.4872C25.8987 19.1865 25.8559 19.8286 25.7685 20.4117C25.6781 21.0054 25.5145 21.5489 25.2718 22.0382C25.0326 22.527 24.7089 22.9522 24.3035 23.3103C23.8926 23.673 23.3878 23.9609 22.8032 24.1835L22.7975 24.1857C22.2123 24.4007 21.5305 24.5526 20.7589 24.6478C19.9864 24.7499 19.095 24.8 18.0882 24.8H17.0821V27.6182H13.7759V24.8H12.7699C11.5389 24.8 10.4818 24.7216 9.60601 24.5586C8.74125 24.4037 7.99756 24.1626 7.39218 23.8211L7.38733 23.8183C6.7841 23.4699 6.29764 23.0232 5.94705 22.4725L5.94382 22.4676C5.6153 21.9394 5.38014 21.3307 5.23081 20.6503L5.22947 20.6446C5.14552 20.2419 5.08364 19.8118 5.04301 19.3546C5.01637 19.0538 4.99888 18.7415 4.99054 18.4178C4.96982 17.6227 4.95933 16.744 4.95933 15.7818C4.95933 14.8197 4.96982 13.9409 4.99054 13.1458C5.0118 12.3298 5.09036 11.5865 5.22974 10.9191L5.23081 10.9133C5.38014 10.233 5.6153 9.62448 5.94382 9.09607L5.94705 9.09111C6.29791 8.53959 6.78518 8.09594 7.38976 7.7544C7.99622 7.40488 8.74098 7.15994 9.60601 7.005C10.4818 6.84207 11.5389 6.76364 12.7699 6.76364H13.7759V3.94545Z" fill="url(#paint0_linear_2904_1126)"/>
<path d="M49.078 12.6619C48.9575 12.2333 48.7882 11.8546 48.5701 11.5258C48.3519 11.1912 48.085 10.9094 47.7693 10.6804C47.4594 10.4455 47.1035 10.2665 46.7017 10.1432C46.3056 10.0199 45.8665 9.95822 45.3844 9.95822C44.4832 9.95822 43.6911 10.1872 43.008 10.6451C42.3307 11.1031 41.8026 11.7695 41.4238 12.6443C41.045 13.5132 40.8555 14.5759 40.8555 15.8324C40.8555 17.0888 41.0421 18.1574 41.4152 19.038C41.7883 19.9187 42.3164 20.591 42.9994 21.0548C43.6825 21.5128 44.4889 21.7417 45.4188 21.7417C46.2626 21.7417 46.983 21.5891 47.5799 21.2838C48.1826 20.9726 48.6418 20.5352 48.9575 19.9716C49.2789 19.4079 49.4397 18.7416 49.4397 17.9724L50.1973 18.0869H45.6513V15.2159H53.03V17.488C53.03 19.0733 52.7028 20.4354 52.0485 21.5744C51.3941 22.7076 50.4929 23.5824 49.345 24.1988C48.197 24.8094 46.8825 25.1148 45.4016 25.1148C43.7485 25.1148 42.2963 24.7419 41.045 23.9963C39.7937 23.2448 38.8179 22.1791 38.1176 20.7994C37.423 19.4138 37.0758 17.7699 37.0758 15.8676C37.0758 14.4057 37.2824 13.1023 37.6957 11.9574C38.1147 10.8066 38.7002 9.83199 39.4521 9.0335C40.2041 8.23502 41.0794 7.62735 42.0782 7.21049C43.0769 6.79364 44.1589 6.58521 45.3241 6.58521C46.3229 6.58521 47.2527 6.73492 48.1137 7.03435C48.9747 7.32792 49.7381 7.74477 50.404 8.28492C51.0756 8.82507 51.6237 9.46797 52.0485 10.2136C52.4732 10.9534 52.7459 11.7695 52.8664 12.6619H49.078Z" fill="#111928"/>
<path d="M61.7368 25.1324C60.3994 25.1324 59.2428 24.8417 58.267 24.2605C57.297 23.6734 56.5479 22.8573 56.0198 21.8122C55.4917 20.7613 55.2277 19.543 55.2277 18.1574C55.2277 16.76 55.4917 15.5388 56.0198 14.4937C56.5479 13.4428 57.297 12.6267 58.267 12.0454C59.2428 11.4583 60.3994 11.1648 61.7368 11.1648C63.0742 11.1648 64.228 11.4583 65.198 12.0454C66.1738 12.6267 66.9257 13.4428 67.4538 14.4937C67.9819 15.5388 68.2459 16.76 68.2459 18.1574C68.2459 19.543 67.9819 20.7613 67.4538 21.8122C66.9257 22.8573 66.1738 23.6734 65.198 24.2605C64.228 24.8417 63.0742 25.1324 61.7368 25.1324ZM61.754 22.2261C62.3625 22.2261 62.8705 22.05 63.278 21.6977C63.6855 21.3396 63.9926 20.8523 64.1993 20.2358C64.4116 19.6193 64.5178 18.9177 64.5178 18.1309C64.5178 17.3442 64.4116 16.6426 64.1993 16.0261C63.9926 15.4096 63.6855 14.9223 63.278 14.5642C62.8705 14.206 62.3625 14.027 61.754 14.027C61.1399 14.027 60.6233 14.206 60.2043 14.5642C59.791 14.9223 59.4781 15.4096 59.2658 16.0261C59.0591 16.6426 58.9558 17.3442 58.9558 18.1309C58.9558 18.9177 59.0591 19.6193 59.2658 20.2358C59.4781 20.8523 59.791 21.3396 60.2043 21.6977C60.6233 22.05 61.1399 22.2261 61.754 22.2261Z" fill="#111928"/>
<path d="M70.6309 24.8682V11.3409H74.1868V13.7011H74.3246C74.5656 12.8615 74.9703 12.2274 75.5386 11.7988C76.1068 11.3644 76.7612 11.1471 77.5016 11.1471C77.6853 11.1471 77.8833 11.1589 78.0957 11.1824C78.3081 11.2059 78.4946 11.2381 78.6554 11.2792V14.6082C78.4832 14.5554 78.245 14.5084 77.9407 14.4673C77.6365 14.4262 77.3581 14.4057 77.1056 14.4057C76.566 14.4057 76.0839 14.526 75.6591 14.7667C75.2401 15.0016 74.9072 15.3304 74.6604 15.7531C74.4193 16.1758 74.2987 16.6631 74.2987 17.215V24.8682H70.6309Z" fill="#111928"/>
<path d="M80.5517 24.8682V11.3409H84.2195V24.8682H80.5517ZM82.3942 9.59714C81.8489 9.59714 81.3811 9.4122 80.9908 9.04231C80.6062 8.66655 80.4139 8.2174 80.4139 7.69487C80.4139 7.1782 80.6062 6.73492 80.9908 6.36504C81.3811 5.98928 81.8489 5.8014 82.3942 5.8014C82.9395 5.8014 83.4045 5.98928 83.789 6.36504C84.1794 6.73492 84.3745 7.1782 84.3745 7.69487C84.3745 8.2174 84.1794 8.66655 83.789 9.04231C83.4045 9.4122 82.9395 9.59714 82.3942 9.59714Z" fill="#111928"/>
<path d="M90.8255 6.8318V24.8682H87.1577V6.8318H90.8255Z" fill="#111928"/>
<path d="M97.4315 6.8318V24.8682H93.7637V6.8318H97.4315Z" fill="#111928"/>
<path d="M100.37 24.8682V11.3409H104.037V24.8682H100.37ZM102.212 9.59714C101.667 9.59714 101.199 9.4122 100.809 9.04231C100.424 8.66655 100.232 8.2174 100.232 7.69487C100.232 7.1782 100.424 6.73492 100.809 6.36504C101.199 5.98928 101.667 5.8014 102.212 5.8014C102.757 5.8014 103.222 5.98928 103.607 6.36504C103.997 6.73492 104.192 7.1782 104.192 7.69487C104.192 8.2174 103.997 8.66655 103.607 9.04231C103.222 9.4122 102.757 9.59714 102.212 9.59714Z" fill="#111928"/>
<path d="M112.951 25.1324C111.614 25.1324 110.457 24.8417 109.481 24.2605C108.511 23.6734 107.762 22.8573 107.234 21.8122C106.706 20.7613 106.442 19.543 106.442 18.1574C106.442 16.76 106.706 15.5388 107.234 14.4937C107.762 13.4428 108.511 12.6267 109.481 12.0454C110.457 11.4583 111.614 11.1648 112.951 11.1648C114.288 11.1648 115.442 11.4583 116.412 12.0454C117.388 12.6267 118.14 13.4428 118.668 14.4937C119.196 15.5388 119.46 16.76 119.46 18.1574C119.46 19.543 119.196 20.7613 118.668 21.8122C118.14 22.8573 117.388 23.6734 116.412 24.2605C115.442 24.8417 114.288 25.1324 112.951 25.1324ZM112.968 22.2261C113.577 22.2261 114.085 22.05 114.492 21.6977C114.9 21.3396 115.207 20.8523 115.413 20.2358C115.626 19.6193 115.732 18.9177 115.732 18.1309C115.732 17.3442 115.626 16.6426 115.413 16.0261C115.207 15.4096 114.9 14.9223 114.492 14.5642C114.085 14.206 113.577 14.027 112.968 14.027C112.354 14.027 111.837 14.206 111.418 14.5642C111.005 14.9223 110.692 15.4096 110.48 16.0261C110.273 16.6426 110.17 17.3442 110.17 18.1309C110.17 18.9177 110.273 19.6193 110.48 20.2358C110.692 20.8523 111.005 21.3396 111.418 21.6977C111.837 22.05 112.354 22.2261 112.968 22.2261Z" fill="#111928"/>
<path d="M125.513 17.0477V24.8682H121.845V11.3409H125.341V13.7275H125.496C125.788 12.9408 126.279 12.3184 126.968 11.8605C127.657 11.3967 128.492 11.1648 129.473 11.1648C130.392 11.1648 131.193 11.3702 131.876 11.7812C132.559 12.1922 133.09 12.7793 133.468 13.5426C133.847 14.3 134.037 15.2041 134.037 16.2551V24.8682H130.369V16.9244C130.375 16.0966 130.168 15.4507 129.749 14.9869C129.33 14.5172 128.753 14.2824 128.018 14.2824C127.525 14.2824 127.088 14.391 126.71 14.6082C126.337 14.8255 126.044 15.1425 125.831 15.5594C125.625 15.9703 125.519 16.4665 125.513 17.0477Z" fill="#111928"/>
<path d="M140.699 25.1236C139.855 25.1236 139.103 24.9738 138.443 24.6744C137.783 24.3691 137.26 23.92 136.876 23.327C136.497 22.7281 136.308 21.9825 136.308 21.09C136.308 20.3385 136.442 19.7074 136.712 19.1966C136.982 18.6858 137.349 18.2748 137.814 17.9636C138.279 17.6524 138.807 17.4176 139.399 17.2591C139.996 17.1005 140.621 16.989 141.275 16.9244C142.045 16.8422 142.665 16.7659 143.135 16.6954C143.606 16.6191 143.947 16.5076 144.16 16.3608C144.372 16.214 144.478 15.9968 144.478 15.7091V15.6562C144.478 15.0985 144.306 14.6669 143.962 14.3616C143.623 14.0563 143.141 13.9037 142.515 13.9037C141.855 13.9037 141.33 14.0534 140.94 14.3528C140.549 14.6464 140.291 15.0163 140.165 15.4625L136.773 15.1807C136.945 14.3587 137.283 13.6483 137.788 13.0494C138.294 12.4447 138.945 11.9809 139.743 11.6579C140.547 11.3291 141.476 11.1648 142.533 11.1648C143.267 11.1648 143.97 11.2528 144.642 11.429C145.319 11.6051 145.919 11.8781 146.441 12.248C146.97 12.6179 147.386 13.0934 147.69 13.6747C147.994 14.2501 148.146 14.9399 148.146 15.7443V24.8682H144.668V22.9923H144.565C144.352 23.415 144.068 23.7879 143.712 24.1108C143.356 24.4278 142.929 24.6773 142.429 24.8594C141.93 25.0355 141.353 25.1236 140.699 25.1236ZM141.749 22.5344C142.289 22.5344 142.765 22.4257 143.178 22.2085C143.592 21.9854 143.916 21.686 144.151 21.3102C144.387 20.9345 144.504 20.5088 144.504 20.0332V18.5977C144.389 18.674 144.232 18.7445 144.031 18.8091C143.836 18.8678 143.615 18.9236 143.368 18.9764C143.121 19.0234 142.874 19.0674 142.627 19.1085C142.38 19.1437 142.157 19.176 141.956 19.2054C141.525 19.27 141.149 19.3727 140.828 19.5136C140.506 19.6545 140.257 19.8453 140.079 20.0861C139.901 20.3209 139.812 20.6145 139.812 20.9667C139.812 21.4775 139.993 21.868 140.354 22.138C140.722 22.4023 141.187 22.5344 141.749 22.5344Z" fill="#111928"/>
<path d="M150.992 24.8682V11.3409H154.66V24.8682H150.992ZM152.834 9.59714C152.289 9.59714 151.821 9.4122 151.431 9.04231C151.046 8.66655 150.854 8.2174 150.854 7.69487C150.854 7.1782 151.046 6.73492 151.431 6.36504C151.821 5.98928 152.289 5.8014 152.834 5.8014C153.38 5.8014 153.845 5.98928 154.229 6.36504C154.619 6.73492 154.815 7.1782 154.815 7.69487C154.815 8.2174 154.619 8.66655 154.229 9.04231C153.845 9.4122 153.38 9.59714 152.834 9.59714Z" fill="#111928"/>
<path d="M157.598 24.8682V11.3409H161.154V13.7011H161.291C161.533 12.8615 161.937 12.2274 162.505 11.7988C163.074 11.3644 163.728 11.1471 164.469 11.1471C164.652 11.1471 164.85 11.1589 165.063 11.1824C165.275 11.2059 165.462 11.2381 165.622 11.2792V14.6082C165.45 14.5554 165.212 14.5084 164.908 14.4673C164.603 14.4262 164.325 14.4057 164.072 14.4057C163.533 14.4057 163.051 14.526 162.626 14.7667C162.207 15.0016 161.874 15.3304 161.627 15.7531C161.386 16.1758 161.266 16.6631 161.266 17.215V24.8682H157.598Z" fill="#111928"/>
<path d="M172.93 25.1324C171.57 25.1324 170.399 24.8505 169.417 24.2869C168.441 23.7174 167.689 22.913 167.161 21.8738C166.633 20.8288 166.369 19.5929 166.369 18.1662C166.369 16.7747 166.633 15.5535 167.161 14.5025C167.689 13.4516 168.433 12.6326 169.391 12.0454C170.356 11.4583 171.486 11.1648 172.784 11.1648C173.656 11.1648 174.468 11.3086 175.22 11.5963C175.978 11.8781 176.638 12.3038 177.201 12.8733C177.769 13.4428 178.211 14.1591 178.526 15.0221C178.842 15.8793 179 16.8833 179 18.0341V19.0645H167.833V16.7395H175.547C175.547 16.1993 175.433 15.7208 175.203 15.304C174.973 14.8871 174.655 14.5612 174.247 14.3264C173.846 14.0857 173.378 13.9653 172.844 13.9653C172.287 13.9653 171.793 14.0974 171.363 14.3616C170.938 14.62 170.605 14.9693 170.364 15.4096C170.123 15.8441 170 16.3285 169.994 16.8628V19.0733C169.994 19.7426 170.115 20.3209 170.356 20.8082C170.602 21.2955 170.95 21.6713 171.397 21.9355C171.845 22.1997 172.376 22.3318 172.99 22.3318C173.398 22.3318 173.771 22.2731 174.11 22.1557C174.448 22.0382 174.738 21.8621 174.979 21.6273C175.22 21.3924 175.404 21.1047 175.53 20.7642L178.923 20.9932C178.75 21.8269 178.397 22.5549 177.863 23.1773C177.335 23.7937 176.652 24.2752 175.814 24.6216C174.982 24.9621 174.021 25.1324 172.93 25.1324Z" fill="#111928"/>
<defs>
<linearGradient id="paint0_linear_2904_1126" x1="89.5" y1="0" x2="89.5" y2="31" gradientUnits="userSpaceOnUse">
<stop stop-color="#8D51FF"/>
<stop offset="1" stop-color="#553199"/>
</linearGradient>
</defs>
</svg>
