<svg width="80" height="31" viewBox="0 0 80 31" fill="none" xmlns="http://www.w3.org/2000/svg">
<path d="M34.8122 30.9927C33.1966 30.9927 32.0315 30.7125 31.3208 30.1519C30.6063 29.5914 30.251 28.7579 30.251 27.6514C30.251 27.12 30.3499 26.6505 30.5441 26.2392C30.7382 25.8279 30.9837 25.4675 31.2731 25.1654C31.5626 24.8633 31.819 24.6158 32.0388 24.4302L33.7095 25.4129C33.442 25.6459 33.1966 25.9079 32.9694 26.1955C32.7423 26.483 32.6287 26.8907 32.6287 27.4221C32.6287 28.0154 32.8192 28.4085 33.2039 28.6014C33.5886 28.7979 34.1235 28.8926 34.8159 28.8926C35.457 28.8926 35.9736 28.7834 36.3583 28.565C36.743 28.3466 36.9335 27.9499 36.9335 27.3748C36.9335 26.7997 36.7686 26.4102 36.4389 26.2537C36.1092 26.0972 35.5376 26.0208 34.7206 26.0208H32.0865L31.1449 24.0589L32.603 21.5111L34.6034 22.2354L33.7095 23.8952L33.7571 24.0116H35.4754C36.8236 24.0116 37.8128 24.281 38.4393 24.8197C39.0658 25.3583 39.3808 26.1882 39.3808 27.3093C39.3808 28.4922 38.9888 29.4058 38.2048 30.0427C37.4208 30.6797 36.2924 31 34.8196 31L34.8122 30.9927ZM34.7426 22.6249C33.8011 22.6249 33.0317 22.4684 32.4382 22.159C31.841 21.846 31.4014 21.34 31.1193 20.6412C30.8371 19.9423 30.6943 19.0215 30.6943 17.8822C30.6943 16.1679 31.0167 14.9486 31.6578 14.2243C32.3026 13.4999 33.3284 13.136 34.739 13.136C36.1495 13.136 37.1753 13.4999 37.8091 14.2243C38.4429 14.9486 38.7617 16.1679 38.7617 17.8822C38.7617 19.0178 38.6225 19.9387 38.3367 20.6412C38.0509 21.3437 37.6186 21.8496 37.0324 22.159C36.4462 22.472 35.6805 22.6249 34.739 22.6249H34.7426ZM34.7426 20.663C35.3398 20.663 35.7355 20.4774 35.9297 20.1025C36.1238 19.7276 36.2228 18.9887 36.2228 17.8822C36.2228 17.1506 36.1825 16.5865 36.1055 16.1897C36.0286 15.793 35.882 15.5164 35.6695 15.3599C35.457 15.2034 35.1493 15.1269 34.739 15.1269C34.3286 15.1269 34.0465 15.207 33.834 15.3599C33.6215 15.5164 33.4677 15.793 33.3761 16.1897C33.2808 16.5865 33.2369 17.1506 33.2369 17.8822C33.2369 18.9887 33.3394 19.7276 33.5409 20.1025C33.7424 20.4774 34.1455 20.663 34.7426 20.663ZM38.1535 15.753L36.7173 13.8384L38.6701 12.5063L39.9157 14.2133L38.1535 15.7566V15.753Z" fill="#5555FF"/>
<path d="M41.2823 21.9697V17.8568C41.2823 16.2516 41.612 15.065 42.2715 14.2934C42.9309 13.5218 43.9788 13.136 45.4222 13.136C46.8657 13.136 47.9172 13.5218 48.573 14.2934C49.2325 15.065 49.5622 16.2516 49.5622 17.8568V21.9697C49.5622 23.5603 49.2325 24.7469 48.573 25.5331C47.9135 26.3192 46.8621 26.7123 45.4222 26.7123C43.9824 26.7123 42.9273 26.3192 42.2715 25.5331C41.612 24.7469 41.2823 23.5567 41.2823 21.9697ZM43.9165 22.0425C43.9165 22.9306 44.019 23.5639 44.2206 23.9461C44.4257 24.3283 44.8251 24.5176 45.4222 24.5176C46.0194 24.5176 46.4371 24.3283 46.6349 23.9461C46.8328 23.5639 46.928 22.9306 46.928 22.0425V17.8131C46.928 16.9104 46.8291 16.2698 46.6349 15.8986C46.4407 15.5237 46.0341 15.338 45.4222 15.338C44.8104 15.338 44.4257 15.5237 44.2206 15.8986C44.0154 16.2735 43.9165 16.9104 43.9165 17.8131V22.0425Z" fill="#5555FF"/>
<path d="M58.007 15.8476C57.7395 15.7857 57.4501 15.753 57.1387 15.753C56.6697 15.753 56.2264 15.8767 55.8088 16.1279C55.3948 16.3754 55.0577 16.6593 54.8086 16.9687V26.4102H52.1487V16.8303L51.8666 13.5109L54.1235 13.2998L54.4312 14.7484C54.5704 14.5154 54.7536 14.2898 54.9734 14.0714C55.1933 13.853 55.4717 13.671 55.8088 13.5218C56.1458 13.3725 56.5561 13.2998 57.0434 13.2998C57.2925 13.2998 57.5124 13.3143 57.7029 13.3471C57.8897 13.3798 58.0546 13.4162 58.1975 13.4635L58.0106 15.8476H58.007Z" fill="#5555FF"/>
<path d="M61.0185 11.9676C60.5495 11.9676 60.1685 11.8329 59.8791 11.5599C59.5897 11.287 59.4431 10.8647 59.4431 10.286C59.4431 9.70729 59.586 9.30692 59.8791 9.03757C60.1685 8.76459 60.5495 8.62992 61.0185 8.62992C61.4874 8.62992 61.8685 8.76823 62.1616 9.03757C62.451 9.31056 62.5975 9.72549 62.5975 10.286C62.5975 10.8465 62.451 11.287 62.1616 11.5599C61.8721 11.8329 61.4911 11.9676 61.0185 11.9676ZM59.6776 13.489H62.3374V26.4139H59.6776V13.489Z" fill="#5555FF"/>
<path d="M68.9687 24.3319H69.5109V26.4576L68.148 26.5995C67.4409 26.5995 66.8731 26.4903 66.4444 26.2719C66.0158 26.0535 65.7007 25.7078 65.5028 25.2309C65.305 24.7578 65.2097 24.1208 65.2097 23.3273V8.11307H67.8439V23.0944C67.8439 23.6076 67.9282 23.9425 68.104 24.099C68.2762 24.2555 68.5657 24.3319 68.9723 24.3319H68.9687ZM74.7316 24.3319H75.3178V26.4576L73.9073 26.5995C73.2002 26.5995 72.6287 26.4903 72.189 26.2719C71.7494 26.0535 71.4307 25.7078 71.2365 25.2309C71.0387 24.7578 70.9434 24.1208 70.9434 23.3273V8.11307H73.6032V23.0944C73.6032 23.6076 73.6838 23.9425 73.8487 24.099C74.0136 24.2555 74.3066 24.3319 74.7316 24.3319Z" fill="#5555FF"/>
<path d="M78.4246 11.9676C77.9557 11.9676 77.5746 11.8329 77.2852 11.5599C76.9958 11.287 76.8492 10.8647 76.8492 10.286C76.8492 9.70729 76.9958 9.30692 77.2852 9.03757C77.5746 8.76459 77.9557 8.62992 78.4246 8.62992C78.8936 8.62992 79.2746 8.76823 79.564 9.03757C79.8535 9.31056 80 9.72549 80 10.286C80 10.8465 79.8535 11.287 79.564 11.5599C79.2746 11.8329 78.8936 11.9676 78.4246 11.9676ZM77.0837 13.489H79.7399V26.4139H77.0837V13.489Z" fill="#5555FF"/>
<path d="M23.2753 13.5837L19.0914 4.33862C17.8861 1.77621 15.2702 0 12.2367 0C9.20315 0 6.58729 1.77621 5.38194 4.33862L1.19802 13.5837C0.432314 15.1742 0 16.9541 0 18.8359C0 25.5513 5.47719 30.9927 12.2367 30.9927C18.9962 30.9927 24.4733 25.5513 24.4733 18.8359C24.4733 16.9541 24.0447 15.1742 23.2753 13.5837ZM12.9181 27.4439C12.9181 27.4439 12.9108 27.4439 12.9071 27.4439H11.5662C11.5662 27.4439 11.5589 27.4439 11.5552 27.4439C9.81865 27.4439 8.30921 26.5012 7.50321 25.1072C8.02345 24.7651 8.59864 24.4812 9.22513 24.2591C10.1081 23.9461 11.1193 23.7896 12.233 23.7896C12.8082 23.7896 13.3541 23.8296 13.856 23.9133C14.3579 23.9971 14.8342 24.1172 15.2739 24.27C15.7135 24.4266 16.1312 24.6158 16.5122 24.8342C16.6697 24.9216 16.8163 25.0198 16.9665 25.1145C16.1605 26.5049 14.651 27.4439 12.9181 27.4439ZM20.8097 17.6566C20.8097 19.2435 19.5164 20.5284 17.919 20.5284H16.9885C17.3695 21.2017 17.5893 21.9733 17.5893 22.7996C17.5893 23.1162 17.5527 23.422 17.4904 23.7204C17.3805 23.6513 17.2742 23.5785 17.1643 23.513C16.7064 23.2509 16.2154 23.0289 15.7025 22.8542C15.1896 22.6795 14.6364 22.5448 14.0612 22.4538C13.486 22.3628 12.8705 22.3155 12.2293 22.3155C10.9434 22.3155 9.76003 22.5048 8.71588 22.8724C8.08207 23.098 7.50321 23.3819 6.97197 23.7132C6.91335 23.4183 6.87305 23.1126 6.87305 22.7996C6.87305 21.9733 7.09287 21.1981 7.4739 20.5284H6.54332C4.94596 20.5284 3.65268 19.2435 3.65268 17.6566V13.9804C3.65268 13.0013 4.45136 12.2078 5.43689 12.2078H19.0218C20.0073 12.2078 20.806 13.0013 20.806 13.9804V17.6566H20.8097Z" fill="#5555FF"/>
<path d="M18.9265 15.338C18.7544 15.1924 18.5528 15.0905 18.333 15.0286C18.1095 14.9668 17.8641 14.934 17.5783 14.934H14.4935C14.1418 14.934 13.867 14.894 13.6545 14.8175C13.4494 14.7411 13.2845 14.6428 13.1672 14.5264C13.0537 14.4062 12.9731 14.2789 12.9254 14.1442C12.8742 14.0132 12.8522 13.8821 12.8522 13.7547V13.6637H11.6175V13.7547C11.6175 13.8785 11.5919 14.0132 11.5442 14.1478C11.4966 14.2789 11.416 14.4062 11.3061 14.5264C11.1889 14.6428 11.024 14.7411 10.8188 14.8175C10.6063 14.8976 10.3316 14.934 9.97985 14.934H6.89504C6.60927 14.934 6.3638 14.9631 6.14032 15.0286C5.91317 15.0905 5.71167 15.1924 5.5468 15.338C5.37827 15.4763 5.24638 15.6583 5.15113 15.8804C5.05953 16.0951 5.01191 16.3572 5.01191 16.6629V17.6202H6.30518V17.056C6.30518 16.9614 6.31984 16.8704 6.34548 16.7757C6.36747 16.692 6.4041 16.6156 6.46272 16.5501C6.51401 16.4882 6.58729 16.4336 6.67522 16.3899C6.75948 16.3499 6.86939 16.328 7.01227 16.328H10.0714C10.2143 16.328 10.3902 16.3244 10.5953 16.3135C10.8042 16.3062 11.0167 16.2662 11.2218 16.2007C11.4343 16.1279 11.6285 16.0114 11.8007 15.8549C11.9692 15.7056 12.0938 15.4873 12.1707 15.2106H12.2916C12.3686 15.4873 12.4931 15.702 12.6617 15.8512C12.8339 16.0077 13.0317 16.1242 13.2442 16.197C13.4494 16.2662 13.6618 16.3026 13.8707 16.3099C14.0795 16.3208 14.2517 16.3244 14.3946 16.3244H17.4537C17.5966 16.3244 17.7065 16.3426 17.7908 16.3863C17.8751 16.4263 17.9483 16.4809 18.007 16.5501C18.0619 16.6156 18.1022 16.692 18.1242 16.7794C18.1498 16.8704 18.1645 16.9614 18.1645 17.056V17.6202H19.4578V16.6629C19.4578 16.3572 19.4101 16.0951 19.3186 15.8804C19.227 15.662 19.0914 15.4763 18.9229 15.338H18.9265Z" fill="#5555FF"/>
<path d="M11.5003 18.9742C11.4343 18.9123 11.3501 18.8613 11.2548 18.8213C11.1632 18.7849 11.0643 18.7667 10.9507 18.7667C10.7016 18.7667 10.5074 18.8359 10.3609 18.9814C10.2143 19.127 10.1484 19.3163 10.1484 19.5638C10.1484 19.6948 10.1667 19.804 10.1997 19.895C10.2326 19.9969 10.2876 20.0843 10.3645 20.1571C10.4378 20.2263 10.5221 20.2772 10.6283 20.3172C10.7382 20.3536 10.8408 20.3682 10.9544 20.3682C11.1779 20.3682 11.3684 20.2954 11.5113 20.1571C11.6578 20.0224 11.7311 19.8222 11.7311 19.5675C11.7311 19.4328 11.7128 19.3236 11.6725 19.2326C11.6358 19.1307 11.5772 19.047 11.5039 18.9778L11.5003 18.9742Z" fill="#5555FF"/>
<path d="M14.0978 18.9742C14.0282 18.9087 13.9476 18.8577 13.8487 18.8213C13.7608 18.7849 13.6582 18.7667 13.5483 18.7667C13.2991 18.7667 13.0976 18.8395 12.9584 18.9814C12.8155 19.1234 12.7459 19.3163 12.7459 19.5638C12.7459 19.6876 12.7606 19.7968 12.7936 19.895C12.8302 19.9969 12.8851 20.0843 12.9584 20.1498C13.028 20.2153 13.1123 20.2699 13.2222 20.31C13.3248 20.3427 13.4347 20.3609 13.5483 20.3609C13.7718 20.3609 13.9586 20.2881 14.1015 20.1498C14.248 20.0115 14.325 19.8113 14.325 19.5602C14.325 19.4401 14.3066 19.3272 14.2663 19.2253C14.2297 19.1307 14.1748 19.047 14.0978 18.9705V18.9742Z" fill="#5555FF"/>
</svg>
