<svg width="18" height="22" viewBox="0 0 18 22" fill="none" xmlns="http://www.w3.org/2000/svg">
<path d="M0.75 17.0002C0.75 15.5863 0.75 14.8792 1.19 14.4402C1.628 14.0002 2.335 14.0002 3.75 14.0002H4.25C5.193 14.0002 5.664 14.0002 5.957 14.2933C6.25 14.5863 6.25 15.0573 6.25 16.0002V21.0002H0.75V17.0002ZM12.25 18.0002C12.25 17.0572 12.25 16.5862 12.543 16.2932C12.836 16.0002 13.307 16.0002 14.25 16.0002H14.75C16.164 16.0002 16.871 16.0003 17.31 16.4403C17.75 16.8792 17.75 17.5863 17.75 19.0002V21.0002H12.25V18.0002ZM6.25 15.0002C6.25 13.5863 6.25 12.8792 6.69 12.4402C7.128 12.0002 7.835 12.0002 9.25 12.0002C10.665 12.0002 11.371 12.0002 11.81 12.4402C12.25 12.8792 12.25 13.5863 12.25 15.0002V21.0002H6.25V15.0002ZM9.941 1.57825L10.645 2.99825C10.7047 3.10464 10.7862 3.19729 10.884 3.27016C10.9819 3.34304 11.094 3.39451 11.213 3.42125L12.489 3.63425C13.305 3.77125 13.497 4.36825 12.909 4.95725L11.917 5.95725C11.83 6.05569 11.7662 6.17235 11.7302 6.29867C11.6943 6.42499 11.687 6.55776 11.709 6.68725L11.993 7.92525C12.217 8.90525 11.701 9.28425 10.841 8.77225L9.645 8.05825C9.52265 7.99478 9.38683 7.96165 9.249 7.96165C9.11117 7.96165 8.97535 7.99478 8.853 8.05825L7.657 8.77225C6.801 9.28425 6.281 8.90125 6.505 7.92525L6.789 6.68725C6.81101 6.55776 6.80375 6.42499 6.76775 6.29867C6.73176 6.17235 6.66795 6.05569 6.581 5.95725L5.59 4.95725C5.006 4.36825 5.194 3.77125 6.01 3.63425L7.285 3.42125C7.40341 3.39389 7.51477 3.34202 7.61191 3.26899C7.70906 3.19597 7.78982 3.1034 7.849 2.99725L8.553 1.57725C8.937 0.80725 9.561 0.80725 9.941 1.57725" fill="#6B7280"/>
<path fill-rule="evenodd" clip-rule="evenodd" d="M8.77672 1.68882L8.06761 3.11913C7.99142 3.25578 7.8872 3.37481 7.76214 3.46882C7.63709 3.56284 7.49372 3.62961 7.34129 3.66483C7.33629 3.66599 7.33125 3.66699 7.32619 3.66783L6.05139 3.8808C5.68776 3.94185 5.54878 4.08979 5.51334 4.20172C5.47758 4.31465 5.50662 4.51808 5.76753 4.78123L6.75857 5.78127C6.76194 5.78467 6.76521 5.78816 6.76838 5.79175C6.88003 5.91816 6.96197 6.06796 7.00819 6.23016C7.0544 6.39237 7.06372 6.56286 7.03547 6.72914C7.03467 6.73383 7.03374 6.73851 7.03267 6.74315L6.74867 7.98115C6.64168 8.44733 6.74322 8.64584 6.82414 8.70537C6.90383 8.764 7.12032 8.80195 7.52867 8.5577L8.72485 7.84359C8.72912 7.84104 8.73347 7.83862 8.73788 7.83633C8.8958 7.75441 9.0711 7.71165 9.249 7.71165C9.4269 7.71165 9.6022 7.75441 9.76012 7.83633C9.76453 7.83862 9.76888 7.84104 9.77315 7.84359L10.9689 8.55744M8.77672 1.68882C8.95109 1.33934 9.13677 1.24975 9.2485 1.24975L8.77672 1.68882ZM9.2485 1.24975C9.35854 1.24975 9.5402 1.33652 9.71091 1.67602L9.2485 1.24975ZM9.71091 1.67602C9.7128 1.68048 9.71484 1.6849 9.71702 1.6893L10.421 3.1093L10.427 3.12062C10.5039 3.25759 10.6087 3.37685 10.7347 3.47067C10.8607 3.56448 11.005 3.63075 11.1582 3.66517L12.4476 3.8808C12.8114 3.9419 12.9516 4.09005 12.9873 4.20217C13.0231 4.31451 12.9947 4.51754 12.7321 4.78062L11.7395 5.78118C11.7361 5.78461 11.7328 5.78813 11.7296 5.79175C11.618 5.91816 11.536 6.06796 11.4898 6.23016C11.4436 6.39237 11.4343 6.56286 11.4625 6.72914C11.4633 6.73383 11.4643 6.73851 11.4653 6.74315L11.7493 7.98096M10.1713 1.47986C10.1694 1.47542 10.1673 1.471 10.1652 1.46661C9.95759 1.04597 9.64019 0.74975 9.2485 0.74975C8.85726 0.74975 8.53887 1.04541 8.32928 1.46568L7.62793 2.88033C7.58601 2.95396 7.52944 3.01823 7.46169 3.06916C7.39434 3.1198 7.3174 3.15615 7.23557 3.17604L5.96881 3.38767C5.51644 3.46362 5.15322 3.68271 5.03666 4.05078C4.92043 4.41784 5.08937 4.80738 5.41243 5.13323L6.39796 6.12771C6.458 6.19713 6.50216 6.27886 6.52732 6.36718C6.55249 6.45551 6.55803 6.54825 6.5436 6.6389L6.26134 7.86933C6.14433 8.37914 6.19079 8.86017 6.52786 9.10813C6.86612 9.35697 7.33756 9.25458 7.78515 8.98691L8.97419 8.27706C9.05939 8.23407 9.15351 8.21165 9.249 8.21165C9.34449 8.21165 9.43861 8.23407 9.52381 8.27706L10.7129 8.98691C11.1613 9.25388 11.6334 9.35827 11.9716 9.10969C12.3087 8.86185 12.3534 8.38004 12.2367 7.86954L11.9544 6.63891C11.94 6.54825 11.9455 6.45551 11.9707 6.36718C11.9958 6.27887 12.04 6.19717 12.1 6.12775L13.0859 5.13388C13.411 4.80805 13.5808 4.41783 13.4637 4.05033C13.3464 3.68246 12.9825 3.46361 12.5304 3.3877L11.2616 3.1759C11.1791 3.15647 11.1014 3.12032 11.0333 3.06965C10.9652 3.01889 10.9082 2.95466 10.8659 2.88098L10.1713 1.47986ZM7.63699 12.303C7.25639 12.3543 7.03192 12.4511 6.86718 12.6166C6.70149 12.7819 6.60402 13.0074 6.55276 13.388C6.50053 13.7758 6.5 14.2862 6.5 15.0002V15.95C6.5 15.9606 6.5 15.9713 6.5 15.9819V20.7502H12V17.982C12 17.9716 12 17.9613 12 17.9511V15.0002C12 14.2862 11.9995 13.7758 11.9472 13.388C11.896 13.0074 11.7991 12.7825 11.6334 12.6172C11.4681 12.4515 11.243 12.3543 10.8626 12.303C10.4749 12.2508 9.96459 12.2502 9.25 12.2502C8.53541 12.2502 8.0248 12.2508 7.63699 12.303ZM12.5 18.0002V20.7502H17.5V19.0002C17.5 18.2862 17.4995 17.7758 17.4472 17.388C17.396 17.0074 17.2991 16.7825 17.1334 16.6172C16.9681 16.4515 16.7428 16.3543 16.3623 16.303C15.9744 16.2508 15.4641 16.2502 14.75 16.2502H14.25C13.7714 16.2502 13.4378 16.2508 13.1861 16.2846C12.9416 16.3175 12.8121 16.3777 12.7198 16.47C12.6274 16.5624 12.5673 16.6919 12.5344 16.9363C12.5005 17.188 12.5 17.5217 12.5 18.0002ZM12.5 16.0042V14.9812C12.5 14.2904 12.5 13.7463 12.4428 13.3213C12.384 12.8852 12.261 12.5371 11.9868 12.2635C11.7131 11.9893 11.3654 11.8662 10.9294 11.8075C10.5044 11.7502 9.96039 11.7502 9.26904 11.7502H9.23096C8.5396 11.7502 7.9953 11.7502 7.57026 11.8075C7.13434 11.8662 6.78645 11.9892 6.51325 12.2634C6.23906 12.5371 6.11597 12.8852 6.05724 13.3213C6.03006 13.523 6.01579 13.7516 6.00829 14.01C5.83108 13.8834 5.6211 13.8215 5.38058 13.7891C5.09164 13.7502 4.72424 13.7502 4.2683 13.7502H3.73096C3.0396 13.7502 2.4953 13.7502 2.07026 13.8075C1.63432 13.8662 1.28641 13.9893 1.01321 14.2635C0.739045 14.5371 0.615965 14.8852 0.557237 15.3213C0.499992 15.7463 0.499995 16.2904 0.5 16.9812L0.5 21.0002C0.5 21.1383 0.611929 21.2502 0.75 21.2502H17.75C17.8881 21.2502 18 21.1383 18 21.0002V18.9813C18 18.2904 18 17.7463 17.9428 17.3213C17.884 16.8852 17.761 16.5371 17.4868 16.2635C17.2131 15.9893 16.8651 15.8662 16.429 15.8075C16.0039 15.7502 15.4599 15.7502 14.769 15.7502H14.2317C13.7757 15.7502 13.4083 15.7502 13.1194 15.7891C12.8826 15.821 12.6755 15.8815 12.5 16.0042ZM6 16.0002C6 15.5217 5.99947 15.188 5.96561 14.9363C5.93272 14.6919 5.87257 14.5624 5.78022 14.47C5.68788 14.3777 5.55839 14.3175 5.31392 14.2846C5.06221 14.2508 4.72857 14.2502 4.25 14.2502H3.75C3.03541 14.2502 2.5248 14.2508 2.13699 14.303C1.75639 14.3543 1.53192 14.4511 1.36718 14.6166C1.2015 14.7819 1.10402 15.0074 1.05276 15.388C1.00053 15.7758 1 16.2862 1 17.0002V20.7502H6V16.0002Z" fill="#6B7280"/>
</svg>
