<svg width="18" height="18" viewBox="0 0 18 18" fill="none" xmlns="http://www.w3.org/2000/svg">
<path d="M17.9309 6.77014C17.8523 6.51399 17.7061 6.28614 17.509 6.11276C17.3119 5.93938 17.072 5.8275 16.8167 5.78996L12.2708 5.10083L10.2377 0.803608C10.1238 0.562418 9.94744 0.359317 9.72857 0.217294C9.50971 0.0752714 9.25711 0 8.99936 0C8.74161 0 8.48901 0.0752714 8.27015 0.217294C8.05129 0.359317 7.87491 0.562418 7.76098 0.803608L5.7279 5.10083L1.18205 5.78996C0.927165 5.82875 0.687749 5.94111 0.49084 6.11435C0.29393 6.28759 0.147373 6.51482 0.0677158 6.77036C-0.0119412 7.02591 -0.0215245 7.2996 0.040048 7.56052C0.10162 7.82145 0.231896 8.05922 0.416164 8.24699L3.70652 11.5922L2.92983 16.3147C2.88556 16.5798 2.91343 16.8525 3.0103 17.1019C3.10717 17.3512 3.26914 17.5672 3.47781 17.7254C3.68648 17.8835 3.93349 17.9774 4.19076 17.9964C4.44804 18.0154 4.70526 17.9588 4.93321 17.8329L8.99936 15.6031L13.0655 17.8329C13.2936 17.9576 13.5505 18.0134 13.8073 17.9939C14.0641 17.9743 14.3106 17.8804 14.5189 17.7225C14.7272 17.5646 14.8891 17.3492 14.9863 17.1004C15.0835 16.8517 15.1121 16.5795 15.0689 16.3147L14.2922 11.5922L17.5826 8.24605C17.7677 8.05908 17.8987 7.82143 17.9603 7.56037C18.0219 7.29932 18.0117 7.02543 17.9309 6.77014Z" fill="#6B7280"/>
</svg>
